<svg width="102" height="94" viewBox="0 0 102 94" fill="none" xmlns="http://www.w3.org/2000/svg">
<path d="M6.20001 69H1.32918e-05V24.7H6.20001V6.19999H12.4V-9.77516e-06H19.6V7.19999H13.4V25.8H7.30001V68H13.4V86.5H19.6V93.9H12.4V87.7H6.20001V69ZM28 37.1H34.3V30.9H40.5V19.6H34.3V13.4H28V6.19999H35.4V12.3H41.5V18.5H46.6V6.19999H53.9V18.5H59V12.3H65.2V6.19999H72.4V13.4H66.2V19.6H60.1V30.9H66.2V37.1H72.4V44.3H65.2V38.1H59V32H53.9V44.3H46.6V32H41.5V38.1H35.4V44.3H28V37.1ZM87.7 86.5V68H93.8V25.8H87.7V7.19999H81.5V-9.77516e-06H88.7V6.19999H94.9V24.7H101.1V69H94.9V87.7H88.7V93.9H81.5V86.5H87.7Z" fill="black"/>
</svg>
