<svg width="1412" height="282" viewBox="0 0 1412 282" fill="none" xmlns="http://www.w3.org/2000/svg">
<mask id="path-1-outside-1_23_8" maskUnits="userSpaceOnUse" x="-0.344" y="-0.997986" width="1413" height="283" fill="black">
<rect fill="white" x="-0.344" y="-0.997986" width="1413" height="283"/>
<path d="M1 222.116H19.774V206.62H1V185.164H19.774V169.966H1V111.558H19.774V93.082H96.658V111.558H111.856V93.082H133.312V114.538H114.836V169.966H96.658V188.442H23.052V203.64H114.836V222.116H133.312V262.346H114.836V280.822H19.774V262.346H1V222.116ZM93.38 166.688V114.538H23.052V166.688H93.38ZM111.856 258.77V225.096H23.052V258.77H111.856ZM150 185.164H168.774V166.688H242.38V114.538H172.052V151.49H150V111.558H168.774V93.082H245.658V111.558H263.836V240.294H282.312V262.346H260.856V243.572H227.182V262.346H168.774V243.572H150V185.164ZM223.904 240.294V222.116H242.38V188.442H172.052V240.294H223.904ZM317.774 225.096H299V93.082H321.052V222.116H339.23V240.294H391.38V222.116H409.856V93.082H431.312V262.346H409.856V243.572H394.658V262.346H336.25V243.572H317.774V225.096ZM466.476 93.082H487.932V111.558H503.13V93.082H561.538V114.538H506.408V133.014H487.932V262.346H466.476V93.082ZM597 185.164H615.774V166.688H689.38V114.538H619.052V151.49H597V111.558H615.774V93.082H692.658V111.558H710.836V240.294H729.312V262.346H707.856V243.572H674.182V262.346H615.774V243.572H597V185.164ZM670.904 240.294V222.116H689.38V188.442H619.052V240.294H670.904ZM783.25 188.442H764.774V151.49H746V93.082H768.052V148.212H786.23V185.164H804.706V222.116H819.904V185.164H838.38V148.212H856.856V93.082H878.312V151.49H859.836V188.442H841.658V225.096H823.182V262.346H801.428V225.096H783.25V188.442ZM979.036 206.62H960.56V74.606H979.036V19.476H997.512V1H1018.97V22.456H1000.49V77.884H982.314V203.64H1000.49V258.77H1018.97V280.822H997.512V262.346H979.036V206.62ZM1044 19.476H1066.05V111.558H1081.25V93.082H1099.43V74.606H1117.9V56.13H1136.38V37.654H1154.86V19.476H1176.31V40.932H1157.84V59.408H1139.66V77.884H1121.18V96.36H1102.71V114.538H1084.23V148.212H1102.71V166.688H1121.18V185.164H1139.66V222.116H1157.84V240.294H1176.31V262.346H1154.86V243.572H1136.38V225.096H1117.9V188.442H1099.43V169.966H1081.25V151.49H1066.05V262.346H1044V19.476ZM1193 19.476H1288.66V37.654H1306.84V56.13H1325.31V114.538H1306.84V133.014H1288.66V148.212H1306.84V203.64H1325.31V262.346H1303.86V206.62H1285.38V151.49H1215.05V262.346H1193V19.476ZM1285.38 129.736V111.558H1303.86V59.408H1285.38V40.932H1215.05V129.736H1285.38ZM1370.91 258.77V203.64H1389.08V77.884H1370.91V22.456H1352.43V1H1373.89V19.476H1392.36V74.606H1410.84V206.62H1392.36V262.346H1373.89V280.822H1352.43V258.77H1370.91Z"/>
</mask>
<path d="M1 222.116H19.774V206.62H1V185.164H19.774V169.966H1V111.558H19.774V93.082H96.658V111.558H111.856V93.082H133.312V114.538H114.836V169.966H96.658V188.442H23.052V203.64H114.836V222.116H133.312V262.346H114.836V280.822H19.774V262.346H1V222.116ZM93.38 166.688V114.538H23.052V166.688H93.38ZM111.856 258.77V225.096H23.052V258.77H111.856ZM150 185.164H168.774V166.688H242.38V114.538H172.052V151.49H150V111.558H168.774V93.082H245.658V111.558H263.836V240.294H282.312V262.346H260.856V243.572H227.182V262.346H168.774V243.572H150V185.164ZM223.904 240.294V222.116H242.38V188.442H172.052V240.294H223.904ZM317.774 225.096H299V93.082H321.052V222.116H339.23V240.294H391.38V222.116H409.856V93.082H431.312V262.346H409.856V243.572H394.658V262.346H336.25V243.572H317.774V225.096ZM466.476 93.082H487.932V111.558H503.13V93.082H561.538V114.538H506.408V133.014H487.932V262.346H466.476V93.082ZM597 185.164H615.774V166.688H689.38V114.538H619.052V151.49H597V111.558H615.774V93.082H692.658V111.558H710.836V240.294H729.312V262.346H707.856V243.572H674.182V262.346H615.774V243.572H597V185.164ZM670.904 240.294V222.116H689.38V188.442H619.052V240.294H670.904ZM783.25 188.442H764.774V151.49H746V93.082H768.052V148.212H786.23V185.164H804.706V222.116H819.904V185.164H838.38V148.212H856.856V93.082H878.312V151.49H859.836V188.442H841.658V225.096H823.182V262.346H801.428V225.096H783.25V188.442ZM979.036 206.62H960.56V74.606H979.036V19.476H997.512V1H1018.97V22.456H1000.49V77.884H982.314V203.64H1000.49V258.77H1018.97V280.822H997.512V262.346H979.036V206.62ZM1044 19.476H1066.05V111.558H1081.25V93.082H1099.43V74.606H1117.9V56.13H1136.38V37.654H1154.86V19.476H1176.31V40.932H1157.84V59.408H1139.66V77.884H1121.18V96.36H1102.71V114.538H1084.23V148.212H1102.71V166.688H1121.18V185.164H1139.66V222.116H1157.84V240.294H1176.31V262.346H1154.86V243.572H1136.38V225.096H1117.9V188.442H1099.43V169.966H1081.25V151.49H1066.05V262.346H1044V19.476ZM1193 19.476H1288.66V37.654H1306.84V56.13H1325.31V114.538H1306.84V133.014H1288.66V148.212H1306.84V203.64H1325.31V262.346H1303.86V206.62H1285.38V151.49H1215.05V262.346H1193V19.476ZM1285.38 129.736V111.558H1303.86V59.408H1285.38V40.932H1215.05V129.736H1285.38ZM1370.91 258.77V203.64H1389.08V77.884H1370.91V22.456H1352.43V1H1373.89V19.476H1392.36V74.606H1410.84V206.62H1392.36V262.346H1373.89V280.822H1352.43V258.77H1370.91Z" fill="black"/>
<path d="M1 222.116V221.116H4.76837e-07V222.116H1ZM19.774 222.116V223.116H20.774V222.116H19.774ZM19.774 206.62H20.774V205.62H19.774V206.62ZM1 206.62H4.76837e-07V207.62H1V206.62ZM1 185.164V184.164H4.76837e-07V185.164H1ZM19.774 185.164V186.164H20.774V185.164H19.774ZM19.774 169.966H20.774V168.966H19.774V169.966ZM1 169.966H4.76837e-07V170.966H1V169.966ZM1 111.558V110.558H4.76837e-07V111.558H1ZM19.774 111.558V112.558H20.774V111.558H19.774ZM19.774 93.082V92.082H18.774V93.082H19.774ZM96.658 93.082H97.658V92.082H96.658V93.082ZM96.658 111.558H95.658V112.558H96.658V111.558ZM111.856 111.558V112.558H112.856V111.558H111.856ZM111.856 93.082V92.082H110.856V93.082H111.856ZM133.312 93.082H134.312V92.082H133.312V93.082ZM133.312 114.538V115.538H134.312V114.538H133.312ZM114.836 114.538V113.538H113.836V114.538H114.836ZM114.836 169.966V170.966H115.836V169.966H114.836ZM96.658 169.966V168.966H95.658V169.966H96.658ZM96.658 188.442V189.442H97.658V188.442H96.658ZM23.052 188.442V187.442H22.052V188.442H23.052ZM23.052 203.64H22.052V204.64H23.052V203.64ZM114.836 203.64H115.836V202.64H114.836V203.64ZM114.836 222.116H113.836V223.116H114.836V222.116ZM133.312 222.116H134.312V221.116H133.312V222.116ZM133.312 262.346V263.346H134.312V262.346H133.312ZM114.836 262.346V261.346H113.836V262.346H114.836ZM114.836 280.822V281.822H115.836V280.822H114.836ZM19.774 280.822H18.774V281.822H19.774V280.822ZM19.774 262.346H20.774V261.346H19.774V262.346ZM1 262.346H4.76837e-07V263.346H1V262.346ZM93.38 166.688V167.688H94.38V166.688H93.38ZM93.38 114.538H94.38V113.538H93.38V114.538ZM23.052 114.538V113.538H22.052V114.538H23.052ZM23.052 166.688H22.052V167.688H23.052V166.688ZM111.856 258.77V259.77H112.856V258.77H111.856ZM111.856 225.096H112.856V224.096H111.856V225.096ZM23.052 225.096V224.096H22.052V225.096H23.052ZM23.052 258.77H22.052V259.77H23.052V258.77ZM1 222.116V223.116H19.774V222.116V221.116H1V222.116ZM19.774 222.116H20.774V206.62H19.774H18.774V222.116H19.774ZM19.774 206.62V205.62H1V206.62V207.62H19.774V206.62ZM1 206.62H2V185.164H1H4.76837e-07V206.62H1ZM1 185.164V186.164H19.774V185.164V184.164H1V185.164ZM19.774 185.164H20.774V169.966H19.774H18.774V185.164H19.774ZM19.774 169.966V168.966H1V169.966V170.966H19.774V169.966ZM1 169.966H2V111.558H1H4.76837e-07V169.966H1ZM1 111.558V112.558H19.774V111.558V110.558H1V111.558ZM19.774 111.558H20.774V93.082H19.774H18.774V111.558H19.774ZM19.774 93.082V94.082H96.658V93.082V92.082H19.774V93.082ZM96.658 93.082H95.658V111.558H96.658H97.658V93.082H96.658ZM96.658 111.558V112.558H111.856V111.558V110.558H96.658V111.558ZM111.856 111.558H112.856V93.082H111.856H110.856V111.558H111.856ZM111.856 93.082V94.082H133.312V93.082V92.082H111.856V93.082ZM133.312 93.082H132.312V114.538H133.312H134.312V93.082H133.312ZM133.312 114.538V113.538H114.836V114.538V115.538H133.312V114.538ZM114.836 114.538H113.836V169.966H114.836H115.836V114.538H114.836ZM114.836 169.966V168.966H96.658V169.966V170.966H114.836V169.966ZM96.658 169.966H95.658V188.442H96.658H97.658V169.966H96.658ZM96.658 188.442V187.442H23.052V188.442V189.442H96.658V188.442ZM23.052 188.442H22.052V203.64H23.052H24.052V188.442H23.052ZM23.052 203.64V204.64H114.836V203.64V202.64H23.052V203.64ZM114.836 203.64H113.836V222.116H114.836H115.836V203.64H114.836ZM114.836 222.116V223.116H133.312V222.116V221.116H114.836V222.116ZM133.312 222.116H132.312V262.346H133.312H134.312V222.116H133.312ZM133.312 262.346V261.346H114.836V262.346V263.346H133.312V262.346ZM114.836 262.346H113.836V280.822H114.836H115.836V262.346H114.836ZM114.836 280.822V279.822H19.774V280.822V281.822H114.836V280.822ZM19.774 280.822H20.774V262.346H19.774H18.774V280.822H19.774ZM19.774 262.346V261.346H1V262.346V263.346H19.774V262.346ZM1 262.346H2V222.116H1H4.76837e-07V262.346H1ZM93.38 166.688H94.38V114.538H93.38H92.38V166.688H93.38ZM93.38 114.538V113.538H23.052V114.538V115.538H93.38V114.538ZM23.052 114.538H22.052V166.688H23.052H24.052V114.538H23.052ZM23.052 166.688V167.688H93.38V166.688V165.688H23.052V166.688ZM111.856 258.77H112.856V225.096H111.856H110.856V258.77H111.856ZM111.856 225.096V224.096H23.052V225.096V226.096H111.856V225.096ZM23.052 225.096H22.052V258.77H23.052H24.052V225.096H23.052ZM23.052 258.77V259.77H111.856V258.77V257.77H23.052V258.77ZM150 185.164V184.164H149V185.164H150ZM168.774 185.164V186.164H169.774V185.164H168.774ZM168.774 166.688V165.688H167.774V166.688H168.774ZM242.38 166.688V167.688H243.38V166.688H242.38ZM242.38 114.538H243.38V113.538H242.38V114.538ZM172.052 114.538V113.538H171.052V114.538H172.052ZM172.052 151.49V152.49H173.052V151.49H172.052ZM150 151.49H149V152.49H150V151.49ZM150 111.558V110.558H149V111.558H150ZM168.774 111.558V112.558H169.774V111.558H168.774ZM168.774 93.082V92.082H167.774V93.082H168.774ZM245.658 93.082H246.658V92.082H245.658V93.082ZM245.658 111.558H244.658V112.558H245.658V111.558ZM263.836 111.558H264.836V110.558H263.836V111.558ZM263.836 240.294H262.836V241.294H263.836V240.294ZM282.312 240.294H283.312V239.294H282.312V240.294ZM282.312 262.346V263.346H283.312V262.346H282.312ZM260.856 262.346H259.856V263.346H260.856V262.346ZM260.856 243.572H261.856V242.572H260.856V243.572ZM227.182 243.572V242.572H226.182V243.572H227.182ZM227.182 262.346V263.346H228.182V262.346H227.182ZM168.774 262.346H167.774V263.346H168.774V262.346ZM168.774 243.572H169.774V242.572H168.774V243.572ZM150 243.572H149V244.572H150V243.572ZM223.904 240.294V241.294H224.904V240.294H223.904ZM223.904 222.116V221.116H222.904V222.116H223.904ZM242.38 222.116V223.116H243.38V222.116H242.38ZM242.38 188.442H243.38V187.442H242.38V188.442ZM172.052 188.442V187.442H171.052V188.442H172.052ZM172.052 240.294H171.052V241.294H172.052V240.294ZM150 185.164V186.164H168.774V185.164V184.164H150V185.164ZM168.774 185.164H169.774V166.688H168.774H167.774V185.164H168.774ZM168.774 166.688V167.688H242.38V166.688V165.688H168.774V166.688ZM242.38 166.688H243.38V114.538H242.38H241.38V166.688H242.38ZM242.38 114.538V113.538H172.052V114.538V115.538H242.38V114.538ZM172.052 114.538H171.052V151.49H172.052H173.052V114.538H172.052ZM172.052 151.49V150.49H150V151.49V152.49H172.052V151.49ZM150 151.49H151V111.558H150H149V151.49H150ZM150 111.558V112.558H168.774V111.558V110.558H150V111.558ZM168.774 111.558H169.774V93.082H168.774H167.774V111.558H168.774ZM168.774 93.082V94.082H245.658V93.082V92.082H168.774V93.082ZM245.658 93.082H244.658V111.558H245.658H246.658V93.082H245.658ZM245.658 111.558V112.558H263.836V111.558V110.558H245.658V111.558ZM263.836 111.558H262.836V240.294H263.836H264.836V111.558H263.836ZM263.836 240.294V241.294H282.312V240.294V239.294H263.836V240.294ZM282.312 240.294H281.312V262.346H282.312H283.312V240.294H282.312ZM282.312 262.346V261.346H260.856V262.346V263.346H282.312V262.346ZM260.856 262.346H261.856V243.572H260.856H259.856V262.346H260.856ZM260.856 243.572V242.572H227.182V243.572V244.572H260.856V243.572ZM227.182 243.572H226.182V262.346H227.182H228.182V243.572H227.182ZM227.182 262.346V261.346H168.774V262.346V263.346H227.182V262.346ZM168.774 262.346H169.774V243.572H168.774H167.774V262.346H168.774ZM168.774 243.572V242.572H150V243.572V244.572H168.774V243.572ZM150 243.572H151V185.164H150H149V243.572H150ZM223.904 240.294H224.904V222.116H223.904H222.904V240.294H223.904ZM223.904 222.116V223.116H242.38V222.116V221.116H223.904V222.116ZM242.38 222.116H243.38V188.442H242.38H241.38V222.116H242.38ZM242.38 188.442V187.442H172.052V188.442V189.442H242.38V188.442ZM172.052 188.442H171.052V240.294H172.052H173.052V188.442H172.052ZM172.052 240.294V241.294H223.904V240.294V239.294H172.052V240.294ZM317.774 225.096H318.774V224.096H317.774V225.096ZM299 225.096H298V226.096H299V225.096ZM299 93.082V92.082H298V93.082H299ZM321.052 93.082H322.052V92.082H321.052V93.082ZM321.052 222.116H320.052V223.116H321.052V222.116ZM339.23 222.116H340.23V221.116H339.23V222.116ZM339.23 240.294H338.23V241.294H339.23V240.294ZM391.38 240.294V241.294H392.38V240.294H391.38ZM391.38 222.116V221.116H390.38V222.116H391.38ZM409.856 222.116V223.116H410.856V222.116H409.856ZM409.856 93.082V92.082H408.856V93.082H409.856ZM431.312 93.082H432.312V92.082H431.312V93.082ZM431.312 262.346V263.346H432.312V262.346H431.312ZM409.856 262.346H408.856V263.346H409.856V262.346ZM409.856 243.572H410.856V242.572H409.856V243.572ZM394.658 243.572V242.572H393.658V243.572H394.658ZM394.658 262.346V263.346H395.658V262.346H394.658ZM336.25 262.346H335.25V263.346H336.25V262.346ZM336.25 243.572H337.25V242.572H336.25V243.572ZM317.774 243.572H316.774V244.572H317.774V243.572ZM317.774 225.096V224.096H299V225.096V226.096H317.774V225.096ZM299 225.096H300V93.082H299H298V225.096H299ZM299 93.082V94.082H321.052V93.082V92.082H299V93.082ZM321.052 93.082H320.052V222.116H321.052H322.052V93.082H321.052ZM321.052 222.116V223.116H339.23V222.116V221.116H321.052V222.116ZM339.23 222.116H338.23V240.294H339.23H340.23V222.116H339.23ZM339.23 240.294V241.294H391.38V240.294V239.294H339.23V240.294ZM391.38 240.294H392.38V222.116H391.38H390.38V240.294H391.38ZM391.38 222.116V223.116H409.856V222.116V221.116H391.38V222.116ZM409.856 222.116H410.856V93.082H409.856H408.856V222.116H409.856ZM409.856 93.082V94.082H431.312V93.082V92.082H409.856V93.082ZM431.312 93.082H430.312V262.346H431.312H432.312V93.082H431.312ZM431.312 262.346V261.346H409.856V262.346V263.346H431.312V262.346ZM409.856 262.346H410.856V243.572H409.856H408.856V262.346H409.856ZM409.856 243.572V242.572H394.658V243.572V244.572H409.856V243.572ZM394.658 243.572H393.658V262.346H394.658H395.658V243.572H394.658ZM394.658 262.346V261.346H336.25V262.346V263.346H394.658V262.346ZM336.25 262.346H337.25V243.572H336.25H335.25V262.346H336.25ZM336.25 243.572V242.572H317.774V243.572V244.572H336.25V243.572ZM317.774 243.572H318.774V225.096H317.774H316.774V243.572H317.774ZM466.476 93.082V92.082H465.476V93.082H466.476ZM487.932 93.082H488.932V92.082H487.932V93.082ZM487.932 111.558H486.932V112.558H487.932V111.558ZM503.13 111.558V112.558H504.13V111.558H503.13ZM503.13 93.082V92.082H502.13V93.082H503.13ZM561.538 93.082H562.538V92.082H561.538V93.082ZM561.538 114.538V115.538H562.538V114.538H561.538ZM506.408 114.538V113.538H505.408V114.538H506.408ZM506.408 133.014V134.014H507.408V133.014H506.408ZM487.932 133.014V132.014H486.932V133.014H487.932ZM487.932 262.346V263.346H488.932V262.346H487.932ZM466.476 262.346H465.476V263.346H466.476V262.346ZM466.476 93.082V94.082H487.932V93.082V92.082H466.476V93.082ZM487.932 93.082H486.932V111.558H487.932H488.932V93.082H487.932ZM487.932 111.558V112.558H503.13V111.558V110.558H487.932V111.558ZM503.13 111.558H504.13V93.082H503.13H502.13V111.558H503.13ZM503.13 93.082V94.082H561.538V93.082V92.082H503.13V93.082ZM561.538 93.082H560.538V114.538H561.538H562.538V93.082H561.538ZM561.538 114.538V113.538H506.408V114.538V115.538H561.538V114.538ZM506.408 114.538H505.408V133.014H506.408H507.408V114.538H506.408ZM506.408 133.014V132.014H487.932V133.014V134.014H506.408V133.014ZM487.932 133.014H486.932V262.346H487.932H488.932V133.014H487.932ZM487.932 262.346V261.346H466.476V262.346V263.346H487.932V262.346ZM466.476 262.346H467.476V93.082H466.476H465.476V262.346H466.476ZM597 185.164V184.164H596V185.164H597ZM615.774 185.164V186.164H616.774V185.164H615.774ZM615.774 166.688V165.688H614.774V166.688H615.774ZM689.38 166.688V167.688H690.38V166.688H689.38ZM689.38 114.538H690.38V113.538H689.38V114.538ZM619.052 114.538V113.538H618.052V114.538H619.052ZM619.052 151.49V152.49H620.052V151.49H619.052ZM597 151.49H596V152.49H597V151.49ZM597 111.558V110.558H596V111.558H597ZM615.774 111.558V112.558H616.774V111.558H615.774ZM615.774 93.082V92.082H614.774V93.082H615.774ZM692.658 93.082H693.658V92.082H692.658V93.082ZM692.658 111.558H691.658V112.558H692.658V111.558ZM710.836 111.558H711.836V110.558H710.836V111.558ZM710.836 240.294H709.836V241.294H710.836V240.294ZM729.312 240.294H730.312V239.294H729.312V240.294ZM729.312 262.346V263.346H730.312V262.346H729.312ZM707.856 262.346H706.856V263.346H707.856V262.346ZM707.856 243.572H708.856V242.572H707.856V243.572ZM674.182 243.572V242.572H673.182V243.572H674.182ZM674.182 262.346V263.346H675.182V262.346H674.182ZM615.774 262.346H614.774V263.346H615.774V262.346ZM615.774 243.572H616.774V242.572H615.774V243.572ZM597 243.572H596V244.572H597V243.572ZM670.904 240.294V241.294H671.904V240.294H670.904ZM670.904 222.116V221.116H669.904V222.116H670.904ZM689.38 222.116V223.116H690.38V222.116H689.38ZM689.38 188.442H690.38V187.442H689.38V188.442ZM619.052 188.442V187.442H618.052V188.442H619.052ZM619.052 240.294H618.052V241.294H619.052V240.294ZM597 185.164V186.164H615.774V185.164V184.164H597V185.164ZM615.774 185.164H616.774V166.688H615.774H614.774V185.164H615.774ZM615.774 166.688V167.688H689.38V166.688V165.688H615.774V166.688ZM689.38 166.688H690.38V114.538H689.38H688.38V166.688H689.38ZM689.38 114.538V113.538H619.052V114.538V115.538H689.38V114.538ZM619.052 114.538H618.052V151.49H619.052H620.052V114.538H619.052ZM619.052 151.49V150.49H597V151.49V152.49H619.052V151.49ZM597 151.49H598V111.558H597H596V151.49H597ZM597 111.558V112.558H615.774V111.558V110.558H597V111.558ZM615.774 111.558H616.774V93.082H615.774H614.774V111.558H615.774ZM615.774 93.082V94.082H692.658V93.082V92.082H615.774V93.082ZM692.658 93.082H691.658V111.558H692.658H693.658V93.082H692.658ZM692.658 111.558V112.558H710.836V111.558V110.558H692.658V111.558ZM710.836 111.558H709.836V240.294H710.836H711.836V111.558H710.836ZM710.836 240.294V241.294H729.312V240.294V239.294H710.836V240.294ZM729.312 240.294H728.312V262.346H729.312H730.312V240.294H729.312ZM729.312 262.346V261.346H707.856V262.346V263.346H729.312V262.346ZM707.856 262.346H708.856V243.572H707.856H706.856V262.346H707.856ZM707.856 243.572V242.572H674.182V243.572V244.572H707.856V243.572ZM674.182 243.572H673.182V262.346H674.182H675.182V243.572H674.182ZM674.182 262.346V261.346H615.774V262.346V263.346H674.182V262.346ZM615.774 262.346H616.774V243.572H615.774H614.774V262.346H615.774ZM615.774 243.572V242.572H597V243.572V244.572H615.774V243.572ZM597 243.572H598V185.164H597H596V243.572H597ZM670.904 240.294H671.904V222.116H670.904H669.904V240.294H670.904ZM670.904 222.116V223.116H689.38V222.116V221.116H670.904V222.116ZM689.38 222.116H690.38V188.442H689.38H688.38V222.116H689.38ZM689.38 188.442V187.442H619.052V188.442V189.442H689.38V188.442ZM619.052 188.442H618.052V240.294H619.052H620.052V188.442H619.052ZM619.052 240.294V241.294H670.904V240.294V239.294H619.052V240.294ZM783.25 188.442H784.25V187.442H783.25V188.442ZM764.774 188.442H763.774V189.442H764.774V188.442ZM764.774 151.49H765.774V150.49H764.774V151.49ZM746 151.49H745V152.49H746V151.49ZM746 93.082V92.082H745V93.082H746ZM768.052 93.082H769.052V92.082H768.052V93.082ZM768.052 148.212H767.052V149.212H768.052V148.212ZM786.23 148.212H787.23V147.212H786.23V148.212ZM786.23 185.164H785.23V186.164H786.23V185.164ZM804.706 185.164H805.706V184.164H804.706V185.164ZM804.706 222.116H803.706V223.116H804.706V222.116ZM819.904 222.116V223.116H820.904V222.116H819.904ZM819.904 185.164V184.164H818.904V185.164H819.904ZM838.38 185.164V186.164H839.38V185.164H838.38ZM838.38 148.212V147.212H837.38V148.212H838.38ZM856.856 148.212V149.212H857.856V148.212H856.856ZM856.856 93.082V92.082H855.856V93.082H856.856ZM878.312 93.082H879.312V92.082H878.312V93.082ZM878.312 151.49V152.49H879.312V151.49H878.312ZM859.836 151.49V150.49H858.836V151.49H859.836ZM859.836 188.442V189.442H860.836V188.442H859.836ZM841.658 188.442V187.442H840.658V188.442H841.658ZM841.658 225.096V226.096H842.658V225.096H841.658ZM823.182 225.096V224.096H822.182V225.096H823.182ZM823.182 262.346V263.346H824.182V262.346H823.182ZM801.428 262.346H800.428V263.346H801.428V262.346ZM801.428 225.096H802.428V224.096H801.428V225.096ZM783.25 225.096H782.25V226.096H783.25V225.096ZM783.25 188.442V187.442H764.774V188.442V189.442H783.25V188.442ZM764.774 188.442H765.774V151.49H764.774H763.774V188.442H764.774ZM764.774 151.49V150.49H746V151.49V152.49H764.774V151.49ZM746 151.49H747V93.082H746H745V151.49H746ZM746 93.082V94.082H768.052V93.082V92.082H746V93.082ZM768.052 93.082H767.052V148.212H768.052H769.052V93.082H768.052ZM768.052 148.212V149.212H786.23V148.212V147.212H768.052V148.212ZM786.23 148.212H785.23V185.164H786.23H787.23V148.212H786.23ZM786.23 185.164V186.164H804.706V185.164V184.164H786.23V185.164ZM804.706 185.164H803.706V222.116H804.706H805.706V185.164H804.706ZM804.706 222.116V223.116H819.904V222.116V221.116H804.706V222.116ZM819.904 222.116H820.904V185.164H819.904H818.904V222.116H819.904ZM819.904 185.164V186.164H838.38V185.164V184.164H819.904V185.164ZM838.38 185.164H839.38V148.212H838.38H837.38V185.164H838.38ZM838.38 148.212V149.212H856.856V148.212V147.212H838.38V148.212ZM856.856 148.212H857.856V93.082H856.856H855.856V148.212H856.856ZM856.856 93.082V94.082H878.312V93.082V92.082H856.856V93.082ZM878.312 93.082H877.312V151.49H878.312H879.312V93.082H878.312ZM878.312 151.49V150.49H859.836V151.49V152.49H878.312V151.49ZM859.836 151.49H858.836V188.442H859.836H860.836V151.49H859.836ZM859.836 188.442V187.442H841.658V188.442V189.442H859.836V188.442ZM841.658 188.442H840.658V225.096H841.658H842.658V188.442H841.658ZM841.658 225.096V224.096H823.182V225.096V226.096H841.658V225.096ZM823.182 225.096H822.182V262.346H823.182H824.182V225.096H823.182ZM823.182 262.346V261.346H801.428V262.346V263.346H823.182V262.346ZM801.428 262.346H802.428V225.096H801.428H800.428V262.346H801.428ZM801.428 225.096V224.096H783.25V225.096V226.096H801.428V225.096ZM783.25 225.096H784.25V188.442H783.25H782.25V225.096H783.25ZM979.036 206.62H980.036V205.62H979.036V206.62ZM960.56 206.62H959.56V207.62H960.56V206.62ZM960.56 74.606V73.606H959.56V74.606H960.56ZM979.036 74.606V75.606H980.036V74.606H979.036ZM979.036 19.476V18.476H978.036V19.476H979.036ZM997.512 19.476V20.476H998.512V19.476H997.512ZM997.512 1V0H996.512V1H997.512ZM1018.97 1H1019.97V0H1018.97V1ZM1018.97 22.456V23.456H1019.97V22.456H1018.97ZM1000.49 22.456V21.456H999.492V22.456H1000.49ZM1000.49 77.884V78.884H1001.49V77.884H1000.49ZM982.314 77.884V76.884H981.314V77.884H982.314ZM982.314 203.64H981.314V204.64H982.314V203.64ZM1000.49 203.64H1001.49V202.64H1000.49V203.64ZM1000.49 258.77H999.492V259.77H1000.49V258.77ZM1018.97 258.77H1019.97V257.77H1018.97V258.77ZM1018.97 280.822V281.822H1019.97V280.822H1018.97ZM997.512 280.822H996.512V281.822H997.512V280.822ZM997.512 262.346H998.512V261.346H997.512V262.346ZM979.036 262.346H978.036V263.346H979.036V262.346ZM979.036 206.62V205.62H960.56V206.62V207.62H979.036V206.62ZM960.56 206.62H961.56V74.606H960.56H959.56V206.62H960.56ZM960.56 74.606V75.606H979.036V74.606V73.606H960.56V74.606ZM979.036 74.606H980.036V19.476H979.036H978.036V74.606H979.036ZM979.036 19.476V20.476H997.512V19.476V18.476H979.036V19.476ZM997.512 19.476H998.512V1H997.512H996.512V19.476H997.512ZM997.512 1V2H1018.97V1V0H997.512V1ZM1018.97 1H1017.97V22.456H1018.97H1019.97V1H1018.97ZM1018.97 22.456V21.456H1000.49V22.456V23.456H1018.97V22.456ZM1000.49 22.456H999.492V77.884H1000.49H1001.49V22.456H1000.49ZM1000.49 77.884V76.884H982.314V77.884V78.884H1000.49V77.884ZM982.314 77.884H981.314V203.64H982.314H983.314V77.884H982.314ZM982.314 203.64V204.64H1000.49V203.64V202.64H982.314V203.64ZM1000.49 203.64H999.492V258.77H1000.49H1001.49V203.64H1000.49ZM1000.49 258.77V259.77H1018.97V258.77V257.77H1000.49V258.77ZM1018.97 258.77H1017.97V280.822H1018.97H1019.97V258.77H1018.97ZM1018.97 280.822V279.822H997.512V280.822V281.822H1018.97V280.822ZM997.512 280.822H998.512V262.346H997.512H996.512V280.822H997.512ZM997.512 262.346V261.346H979.036V262.346V263.346H997.512V262.346ZM979.036 262.346H980.036V206.62H979.036H978.036V262.346H979.036ZM1044 19.476V18.476H1043V19.476H1044ZM1066.05 19.476H1067.05V18.476H1066.05V19.476ZM1066.05 111.558H1065.05V112.558H1066.05V111.558ZM1081.25 111.558V112.558H1082.25V111.558H1081.25ZM1081.25 93.082V92.082H1080.25V93.082H1081.25ZM1099.43 93.082V94.082H1100.43V93.082H1099.43ZM1099.43 74.606V73.606H1098.43V74.606H1099.43ZM1117.9 74.606V75.606H1118.9V74.606H1117.9ZM1117.9 56.13V55.13H1116.9V56.13H1117.9ZM1136.38 56.13V57.13H1137.38V56.13H1136.38ZM1136.38 37.654V36.654H1135.38V37.654H1136.38ZM1154.86 37.654V38.654H1155.86V37.654H1154.86ZM1154.86 19.476V18.476H1153.86V19.476H1154.86ZM1176.31 19.476H1177.31V18.476H1176.31V19.476ZM1176.31 40.932V41.932H1177.31V40.932H1176.31ZM1157.84 40.932V39.932H1156.84V40.932H1157.84ZM1157.84 59.408V60.408H1158.84V59.408H1157.84ZM1139.66 59.408V58.408H1138.66V59.408H1139.66ZM1139.66 77.884V78.884H1140.66V77.884H1139.66ZM1121.18 77.884V76.884H1120.18V77.884H1121.18ZM1121.18 96.36V97.36H1122.18V96.36H1121.18ZM1102.71 96.36V95.36H1101.71V96.36H1102.71ZM1102.71 114.538V115.538H1103.71V114.538H1102.71ZM1084.23 114.538V113.538H1083.23V114.538H1084.23ZM1084.23 148.212H1083.23V149.212H1084.23V148.212ZM1102.71 148.212H1103.71V147.212H1102.71V148.212ZM1102.71 166.688H1101.71V167.688H1102.71V166.688ZM1121.18 166.688H1122.18V165.688H1121.18V166.688ZM1121.18 185.164H1120.18V186.164H1121.18V185.164ZM1139.66 185.164H1140.66V184.164H1139.66V185.164ZM1139.66 222.116H1138.66V223.116H1139.66V222.116ZM1157.84 222.116H1158.84V221.116H1157.84V222.116ZM1157.84 240.294H1156.84V241.294H1157.84V240.294ZM1176.31 240.294H1177.31V239.294H1176.31V240.294ZM1176.31 262.346V263.346H1177.31V262.346H1176.31ZM1154.86 262.346H1153.86V263.346H1154.86V262.346ZM1154.86 243.572H1155.86V242.572H1154.86V243.572ZM1136.38 243.572H1135.38V244.572H1136.38V243.572ZM1136.38 225.096H1137.38V224.096H1136.38V225.096ZM1117.9 225.096H1116.9V226.096H1117.9V225.096ZM1117.9 188.442H1118.9V187.442H1117.9V188.442ZM1099.43 188.442H1098.43V189.442H1099.43V188.442ZM1099.43 169.966H1100.43V168.966H1099.43V169.966ZM1081.25 169.966H1080.25V170.966H1081.25V169.966ZM1081.25 151.49H1082.25V150.49H1081.25V151.49ZM1066.05 151.49V150.49H1065.05V151.49H1066.05ZM1066.05 262.346V263.346H1067.05V262.346H1066.05ZM1044 262.346H1043V263.346H1044V262.346ZM1044 19.476V20.476H1066.05V19.476V18.476H1044V19.476ZM1066.05 19.476H1065.05V111.558H1066.05H1067.05V19.476H1066.05ZM1066.05 111.558V112.558H1081.25V111.558V110.558H1066.05V111.558ZM1081.25 111.558H1082.25V93.082H1081.25H1080.25V111.558H1081.25ZM1081.25 93.082V94.082H1099.43V93.082V92.082H1081.25V93.082ZM1099.43 93.082H1100.43V74.606H1099.43H1098.43V93.082H1099.43ZM1099.43 74.606V75.606H1117.9V74.606V73.606H1099.43V74.606ZM1117.9 74.606H1118.9V56.13H1117.9H1116.9V74.606H1117.9ZM1117.9 56.13V57.13H1136.38V56.13V55.13H1117.9V56.13ZM1136.38 56.13H1137.38V37.654H1136.38H1135.38V56.13H1136.38ZM1136.38 37.654V38.654H1154.86V37.654V36.654H1136.38V37.654ZM1154.86 37.654H1155.86V19.476H1154.86H1153.86V37.654H1154.86ZM1154.86 19.476V20.476H1176.31V19.476V18.476H1154.86V19.476ZM1176.31 19.476H1175.31V40.932H1176.31H1177.31V19.476H1176.31ZM1176.31 40.932V39.932H1157.84V40.932V41.932H1176.31V40.932ZM1157.84 40.932H1156.84V59.408H1157.84H1158.84V40.932H1157.84ZM1157.84 59.408V58.408H1139.66V59.408V60.408H1157.84V59.408ZM1139.66 59.408H1138.66V77.884H1139.66H1140.66V59.408H1139.66ZM1139.66 77.884V76.884H1121.18V77.884V78.884H1139.66V77.884ZM1121.18 77.884H1120.18V96.36H1121.18H1122.18V77.884H1121.18ZM1121.18 96.36V95.36H1102.71V96.36V97.36H1121.18V96.36ZM1102.71 96.36H1101.71V114.538H1102.71H1103.71V96.36H1102.71ZM1102.71 114.538V113.538H1084.23V114.538V115.538H1102.71V114.538ZM1084.23 114.538H1083.23V148.212H1084.23H1085.23V114.538H1084.23ZM1084.23 148.212V149.212H1102.71V148.212V147.212H1084.23V148.212ZM1102.71 148.212H1101.71V166.688H1102.71H1103.71V148.212H1102.71ZM1102.71 166.688V167.688H1121.18V166.688V165.688H1102.71V166.688ZM1121.18 166.688H1120.18V185.164H1121.18H1122.18V166.688H1121.18ZM1121.18 185.164V186.164H1139.66V185.164V184.164H1121.18V185.164ZM1139.66 185.164H1138.66V222.116H1139.66H1140.66V185.164H1139.66ZM1139.66 222.116V223.116H1157.84V222.116V221.116H1139.66V222.116ZM1157.84 222.116H1156.84V240.294H1157.84H1158.84V222.116H1157.84ZM1157.84 240.294V241.294H1176.31V240.294V239.294H1157.84V240.294ZM1176.31 240.294H1175.31V262.346H1176.31H1177.31V240.294H1176.31ZM1176.31 262.346V261.346H1154.86V262.346V263.346H1176.31V262.346ZM1154.86 262.346H1155.86V243.572H1154.86H1153.86V262.346H1154.86ZM1154.86 243.572V242.572H1136.38V243.572V244.572H1154.86V243.572ZM1136.38 243.572H1137.38V225.096H1136.38H1135.38V243.572H1136.38ZM1136.38 225.096V224.096H1117.9V225.096V226.096H1136.38V225.096ZM1117.9 225.096H1118.9V188.442H1117.9H1116.9V225.096H1117.9ZM1117.9 188.442V187.442H1099.43V188.442V189.442H1117.9V188.442ZM1099.43 188.442H1100.43V169.966H1099.43H1098.43V188.442H1099.43ZM1099.43 169.966V168.966H1081.25V169.966V170.966H1099.43V169.966ZM1081.25 169.966H1082.25V151.49H1081.25H1080.25V169.966H1081.25ZM1081.25 151.49V150.49H1066.05V151.49V152.49H1081.25V151.49ZM1066.05 151.49H1065.05V262.346H1066.05H1067.05V151.49H1066.05ZM1066.05 262.346V261.346H1044V262.346V263.346H1066.05V262.346ZM1044 262.346H1045V19.476H1044H1043V262.346H1044ZM1193 19.476V18.476H1192V19.476H1193ZM1288.66 19.476H1289.66V18.476H1288.66V19.476ZM1288.66 37.654H1287.66V38.654H1288.66V37.654ZM1306.84 37.654H1307.84V36.654H1306.84V37.654ZM1306.84 56.13H1305.84V57.13H1306.84V56.13ZM1325.31 56.13H1326.31V55.13H1325.31V56.13ZM1325.31 114.538V115.538H1326.31V114.538H1325.31ZM1306.84 114.538V113.538H1305.84V114.538H1306.84ZM1306.84 133.014V134.014H1307.84V133.014H1306.84ZM1288.66 133.014V132.014H1287.66V133.014H1288.66ZM1288.66 148.212H1287.66V149.212H1288.66V148.212ZM1306.84 148.212H1307.84V147.212H1306.84V148.212ZM1306.84 203.64H1305.84V204.64H1306.84V203.64ZM1325.31 203.64H1326.31V202.64H1325.31V203.64ZM1325.31 262.346V263.346H1326.31V262.346H1325.31ZM1303.86 262.346H1302.86V263.346H1303.86V262.346ZM1303.86 206.62H1304.86V205.62H1303.86V206.62ZM1285.38 206.62H1284.38V207.62H1285.38V206.62ZM1285.38 151.49H1286.38V150.49H1285.38V151.49ZM1215.05 151.49V150.49H1214.05V151.49H1215.05ZM1215.05 262.346V263.346H1216.05V262.346H1215.05ZM1193 262.346H1192V263.346H1193V262.346ZM1285.38 129.736V130.736H1286.38V129.736H1285.38ZM1285.38 111.558V110.558H1284.38V111.558H1285.38ZM1303.86 111.558V112.558H1304.86V111.558H1303.86ZM1303.86 59.408H1304.86V58.408H1303.86V59.408ZM1285.38 59.408H1284.38V60.408H1285.38V59.408ZM1285.38 40.932H1286.38V39.932H1285.38V40.932ZM1215.05 40.932V39.932H1214.05V40.932H1215.05ZM1215.05 129.736H1214.05V130.736H1215.05V129.736ZM1193 19.476V20.476H1288.66V19.476V18.476H1193V19.476ZM1288.66 19.476H1287.66V37.654H1288.66H1289.66V19.476H1288.66ZM1288.66 37.654V38.654H1306.84V37.654V36.654H1288.66V37.654ZM1306.84 37.654H1305.84V56.13H1306.84H1307.84V37.654H1306.84ZM1306.84 56.13V57.13H1325.31V56.13V55.13H1306.84V56.13ZM1325.31 56.13H1324.31V114.538H1325.31H1326.31V56.13H1325.31ZM1325.31 114.538V113.538H1306.84V114.538V115.538H1325.31V114.538ZM1306.84 114.538H1305.84V133.014H1306.84H1307.84V114.538H1306.84ZM1306.84 133.014V132.014H1288.66V133.014V134.014H1306.84V133.014ZM1288.66 133.014H1287.66V148.212H1288.66H1289.66V133.014H1288.66ZM1288.66 148.212V149.212H1306.84V148.212V147.212H1288.66V148.212ZM1306.84 148.212H1305.84V203.64H1306.84H1307.84V148.212H1306.84ZM1306.84 203.64V204.64H1325.31V203.64V202.64H1306.84V203.64ZM1325.31 203.64H1324.31V262.346H1325.31H1326.31V203.64H1325.31ZM1325.31 262.346V261.346H1303.86V262.346V263.346H1325.31V262.346ZM1303.86 262.346H1304.86V206.62H1303.86H1302.86V262.346H1303.86ZM1303.86 206.62V205.62H1285.38V206.62V207.62H1303.86V206.62ZM1285.38 206.62H1286.38V151.49H1285.38H1284.38V206.62H1285.38ZM1285.38 151.49V150.49H1215.05V151.49V152.49H1285.38V151.49ZM1215.05 151.49H1214.05V262.346H1215.05H1216.05V151.49H1215.05ZM1215.05 262.346V261.346H1193V262.346V263.346H1215.05V262.346ZM1193 262.346H1194V19.476H1193H1192V262.346H1193ZM1285.38 129.736H1286.38V111.558H1285.38H1284.38V129.736H1285.38ZM1285.38 111.558V112.558H1303.86V111.558V110.558H1285.38V111.558ZM1303.86 111.558H1304.86V59.408H1303.86H1302.86V111.558H1303.86ZM1303.86 59.408V58.408H1285.38V59.408V60.408H1303.86V59.408ZM1285.38 59.408H1286.38V40.932H1285.38H1284.38V59.408H1285.38ZM1285.38 40.932V39.932H1215.05V40.932V41.932H1285.38V40.932ZM1215.05 40.932H1214.05V129.736H1215.05H1216.05V40.932H1215.05ZM1215.05 129.736V130.736H1285.38V129.736V128.736H1215.05V129.736ZM1370.91 258.77V259.77H1371.91V258.77H1370.91ZM1370.91 203.64V202.64H1369.91V203.64H1370.91ZM1389.08 203.64V204.64H1390.08V203.64H1389.08ZM1389.08 77.884H1390.08V76.884H1389.08V77.884ZM1370.91 77.884H1369.91V78.884H1370.91V77.884ZM1370.91 22.456H1371.91V21.456H1370.91V22.456ZM1352.43 22.456H1351.43V23.456H1352.43V22.456ZM1352.43 1V0H1351.43V1H1352.43ZM1373.89 1H1374.89V0H1373.89V1ZM1373.89 19.476H1372.89V20.476H1373.89V19.476ZM1392.36 19.476H1393.36V18.476H1392.36V19.476ZM1392.36 74.606H1391.36V75.606H1392.36V74.606ZM1410.84 74.606H1411.84V73.606H1410.84V74.606ZM1410.84 206.62V207.62H1411.84V206.62H1410.84ZM1392.36 206.62V205.62H1391.36V206.62H1392.36ZM1392.36 262.346V263.346H1393.36V262.346H1392.36ZM1373.89 262.346V261.346H1372.89V262.346H1373.89ZM1373.89 280.822V281.822H1374.89V280.822H1373.89ZM1352.43 280.822H1351.43V281.822H1352.43V280.822ZM1352.43 258.77V257.77H1351.43V258.77H1352.43ZM1370.91 258.77H1371.91V203.64H1370.91H1369.91V258.77H1370.91ZM1370.91 203.64V204.64H1389.08V203.64V202.64H1370.91V203.64ZM1389.08 203.64H1390.08V77.884H1389.08H1388.08V203.64H1389.08ZM1389.08 77.884V76.884H1370.91V77.884V78.884H1389.08V77.884ZM1370.91 77.884H1371.91V22.456H1370.91H1369.91V77.884H1370.91ZM1370.91 22.456V21.456H1352.43V22.456V23.456H1370.91V22.456ZM1352.43 22.456H1353.43V1H1352.43H1351.43V22.456H1352.43ZM1352.43 1V2H1373.89V1V0H1352.43V1ZM1373.89 1H1372.89V19.476H1373.89H1374.89V1H1373.89ZM1373.89 19.476V20.476H1392.36V19.476V18.476H1373.89V19.476ZM1392.36 19.476H1391.36V74.606H1392.36H1393.36V19.476H1392.36ZM1392.36 74.606V75.606H1410.84V74.606V73.606H1392.36V74.606ZM1410.84 74.606H1409.84V206.62H1410.84H1411.84V74.606H1410.84ZM1410.84 206.62V205.62H1392.36V206.62V207.62H1410.84V206.62ZM1392.36 206.62H1391.36V262.346H1392.36H1393.36V206.62H1392.36ZM1392.36 262.346V261.346H1373.89V262.346V263.346H1392.36V262.346ZM1373.89 262.346H1372.89V280.822H1373.89H1374.89V262.346H1373.89ZM1373.89 280.822V279.822H1352.43V280.822V281.822H1373.89V280.822ZM1352.43 280.822H1353.43V258.77H1352.43H1351.43V280.822H1352.43ZM1352.43 258.77V259.77H1370.91V258.77V257.77H1352.43V258.77Z" fill="black" mask="url(#path-1-outside-1_23_8)"/>
</svg>
